<svg xmlns="http://www.w3.org/2000/svg" viewBox="0 0 100 100" width="100" height="100">
  <rect width="100" height="100" rx="24" fill="url(#grad)"/>
  <defs>
    <linearGradient id="grad" x1="0%" y1="0%" x2="100%" y2="100%">
      <stop offset="0%" stop-color="#0d9488" />
      <stop offset="100%" stop-color="#0f766e" />
    </linearGradient>
  </defs>
  <path d="M50 15C35 15 25 26 25 39C25 49 30 58 34 69C38 80 40 91 44 95C46 97 48 97 50 93C52 97 54 97 56 95C60 91 62 80 66 69C70 58 75 49 75 39C75 26 65 15 50 15Z" fill="#ffffff"/>
  <circle cx="38" cy="35" r="3" fill="#99f6e4" />
</svg>
